HIERARCHY
ROOT Hips
{
  OFFSET 55.1262 85.7613 8.85991
  CHANNELS 6 Xposition Yposition Zposition Zrotation Xrotation Yrotation
  JOINT spine
  {
    OFFSET 0 6.3926 0.367606
    CHANNELS 3 Zrotation Xrotation Yrotation
    JOINT spine1
    {
      OFFSET 0 9.17611 0
      CHANNELS 3 Zrotation Xrotation Yrotation
      JOINT spine2
      {
        OFFSET 0 8.79238 0
        CHANNELS 3 Zrotation Xrotation Yrotation
        JOINT Neck
        {
          OFFSET 0 22.5737 1.07624
          CHANNELS 3 Zrotation Xrotation Yrotation
          JOINT Head
          {
            OFFSET 0 6.82011 0
            CHANNELS 3 Zrotation Xrotation Yrotation
            End Site
            {
              OFFSET 0 16.5085 -5.44427
            }
          }
        }
        JOINT RightShoulder
        {
          OFFSET -3.70221 9.49509 -0.515508
          CHANNELS 3 Zrotation Xrotation Yrotation
          JOINT RightArm
          {
            OFFSET 0 12.4537 0
            CHANNELS 3 Zrotation Xrotation Yrotation
            JOINT RightArmRoll
            {
              OFFSET 0 6.28686 0
              CHANNELS 3 Zrotation Xrotation Yrotation
              JOINT RightForeArm
              {
                OFFSET 0 18.3114 0
                CHANNELS 3 Zrotation Xrotation Yrotation
                JOINT RightForeArmRoll
                {
                  OFFSET 0 7.05483 0
                  CHANNELS 3 Zrotation Xrotation Yrotation
                  JOINT RightHand
                  {
                    OFFSET 0 14.1575 0
                    CHANNELS 3 Zrotation Xrotation Yrotation
                    End Site
                    {
                      OFFSET 0 0 0
                    }
                  }
                }
              }
            }
          }
        }
        JOINT LeftShoulder
        {
          OFFSET 3.70221 9.49509 -0.515508
          CHANNELS 3 Zrotation Xrotation Yrotation
          JOINT LeftArm
          {
            OFFSET 0 12.4537 0
            CHANNELS 3 Zrotation Xrotation Yrotation
            JOINT LeftArmRoll
            {
              OFFSET 0 6.28686 0
              CHANNELS 3 Zrotation Xrotation Yrotation
              JOINT LeftForeArm
              {
                OFFSET 0 18.3114 0
                CHANNELS 3 Zrotation Xrotation Yrotation
                JOINT LeftForeArmRoll
                {
                  OFFSET 0 7.05483 0
                  CHANNELS 3 Zrotation Xrotation Yrotation
                  JOINT LeftHand
                  {
                    OFFSET 0 14.1575 0
                    CHANNELS 3 Zrotation Xrotation Yrotation
                    End Site
                    {
                      OFFSET 0 0 0
                    }
                  }
                }
              }
            }
          }
        }
      }
    }
  }
  JOINT RightUpLeg
  {
    OFFSET -5.66616 -1.03903 -0.87161
    CHANNELS 3 Zrotation Xrotation Yrotation
    JOINT RightUpLegRoll
    {
      OFFSET 0 16.6005 0
      CHANNELS 3 Zrotation Xrotation Yrotation
      JOINT RightLeg
      {
        OFFSET 0 -20.5572 0
        CHANNELS 3 Zrotation Xrotation Yrotation
        JOINT RightLegRoll
        {
          OFFSET 0 20.6244 0
          CHANNELS 3 Zrotation Xrotation Yrotation
          JOINT RightFoot
          {
            OFFSET 0 17.1664 0
            CHANNELS 3 Zrotation Xrotation Yrotation
            JOINT RightToeBase
            {
              OFFSET 0 14.3502 0
              CHANNELS 3 Zrotation Xrotation Yrotation
              End Site
              {
                OFFSET 0.00608252 6.94971 -0.801061
              }
            }
          }
        }
      }
    }
  }
  JOINT LeftUpLeg
  {
    OFFSET 5.66616 -1.03903 -0.87161
    CHANNELS 3 Zrotation Xrotation Yrotation
    JOINT LeftUpLegRoll
    {
      OFFSET 0 16.6006 0
      CHANNELS 3 Zrotation Xrotation Yrotation
      JOINT LeftLeg
      {
        OFFSET 0 20.5571 0
        CHANNELS 3 Zrotation Xrotation Yrotation
        JOINT LeftLegRoll
        {
          OFFSET 0 20.8151 0
          CHANNELS 3 Zrotation Xrotation Yrotation
          JOINT LeftFoot
          {
            OFFSET 0 16.9757 0
            CHANNELS 3 Zrotation Xrotation Yrotation
            JOINT LeftToeBase
            {
              OFFSET 0 14.3502 0
              CHANNELS 3 Zrotation Xrotation Yrotation
              End Site
              {
                OFFSET -0.0272592 6.94971 -0.801061
              }
            }
          }
        }
      }
    }
  }
}
MOTION
Frames: 6
Frame Time: 0.00208333
54.648 85.7455 8.73759 -0.969132 -2.12697 1.42485 -0.282194 -1.47758 -0.124099 -0.566139 1.04814 -0.219305 -0.563874 2.69317 -0.209936 2.97039 18.1688 -2.23963 -2.85423 13.2558 -1.10349 29.2731 -18.494 -15.3653 70.0075 36.7427 58.7962 8.06511e-007 -3.17957e-008 -2.85525e-006 -10.3824 37.6539 5.43846 -2.07185e-006 -7.13512e-006 -3.00313 8.02895 -4.95145 0.697691 -23.0753 -14.3519 11.3105 -72.2118 31.31 -50.0934 -4.09316e-006 -1.36936e-006 7.63908e-006 17.3336 31.8713 -8.02109 5.78338e-006 -3.44004e-006 3.00789 -8.02899 -4.95144 -0.69767 177.639 -0.433228 -0.347712 180 7.01556e-015 178.962 176.992 5.13138 179.763 2.30606e-006 3.15075e-006 0.0424374 -18.4773 67.8214 19.389 8.13649 25.2326 -3.48773 -175.081 -1.05373 0.697126 4.54188e-006 -4.6773e-006 -1.04857 -1.0059 -5.58619 0.437325 4.1259e-006 1.22674e-006 -0.0107258 17.817 67.985 -19.5168 -8.13651 25.233 3.48735 
54.5936 85.7587 8.74057 -0.967262 -2.10401 1.42742 -0.281923 -1.48361 -0.120115 -0.565539 1.03605 -0.211436 -0.563366 2.68108 -0.202073 3.00912 18.1525 -2.26004 -2.88652 13.2269 -1.1102 29.3988 -18.5079 -15.3613 70.1379 36.6907 58.5128 8.06511e-007 -3.17957e-008 -2.85525e-006 -10.4125 36.9984 5.33081 -2.07185e-006 -7.13512e-006 -3.00313 8.02895 -4.95145 0.697691 -23.1591 -14.3005 11.2405 -72.3774 31.1533 -49.7052 -4.09316e-006 -1.36936e-006 7.63908e-006 17.1797 31.2471 -7.77426 5.78338e-006 -3.44004e-006 3.00789 -8.02899 -4.95144 -0.69767 177.631 -0.411371 -0.343454 180 7.01556e-015 178.962 176.986 5.13028 179.764 2.30606e-006 3.15075e-006 0.0424356 -18.4784 67.8229 19.3899 8.13649 25.2326 -3.48773 -175.089 -1.02982 0.707232 4.54188e-006 -4.6773e-006 -1.04872 -1.00086 -5.58732 0.43704 4.1259e-006 1.22674e-006 -0.0108932 17.8181 67.9848 -19.5166 -8.13651 25.233 3.48735 
54.3874 85.7728 8.71694 -0.965373 -2.082 1.42895 -0.281597 -1.48942 -0.116367 -0.564832 1.02442 -0.204018 -0.562746 2.66944 -0.194662 3.04532 18.1361 -2.27862 -2.91833 13.1985 -1.116 29.5236 -18.5193 -15.3549 70.2707 36.6379 58.2267 8.06511e-007 -3.17957e-008 -2.85525e-006 -10.4396 36.3407 5.22237 -2.07185e-006 -7.13512e-006 -3.00313 8.02895 -4.95145 0.697691 -23.2431 -14.25 11.1718 -72.5428 30.9959 -49.3137 -4.09316e-006 -1.36936e-006 7.63908e-006 17.021 30.622 -7.52951 5.78338e-006 -3.44004e-006 3.00789 -8.02899 -4.95144 -0.69767 177.623 -0.390195 -0.339313 180 7.01556e-015 178.962 176.981 5.12927 179.764 2.30606e-006 3.15075e-006 0.0424338 -18.4794 67.8244 19.3906 8.13649 25.2326 -3.48773 -175.097 -1.00737 0.716978 4.54188e-006 -4.6773e-006 -1.04888 -0.996084 -5.58791 0.436717 4.1259e-006 1.22674e-006 -0.0110577 17.8196 67.9847 -19.5165 -8.13651 25.233 3.48735 
54.4238 85.7567 8.71935 -0.963462 -2.0614 1.42916 -0.281226 -1.49487 -0.112955 -0.564039 1.01349 -0.197239 -0.562033 2.65852 -0.187892 3.07835 18.1193 -2.29476 -2.94947 13.1707 -1.12052 29.6473 -18.5276 -15.3453 70.4065 36.584 57.938 8.06511e-007 -3.17957e-008 -2.85525e-006 -10.4636 35.6804 5.11338 -2.07185e-006 -7.13512e-006 -3.00313 8.02895 -4.95145 0.697691 -23.3277 -14.2013 11.1053 -72.7079 30.8382 -48.9183 -4.09316e-006 -1.36936e-006 7.63908e-006 16.857 29.9952 -7.2868 5.78338e-006 -3.44004e-006 3.00789 -8.02899 -4.95144 -0.69767 177.615 -0.370074 -0.335358 180 7.01556e-015 178.962 176.977 5.12844 179.765 2.30606e-006 3.15075e-006 0.0424319 -18.4804 67.8257 19.3914 8.13649 25.2326 -3.48773 -175.105 -0.986959 0.726159 4.54188e-006 -4.6773e-006 -1.04907 -0.99173 -5.58784 0.436353 4.1259e-006 1.22674e-006 -0.0112188 17.8217 67.9846 -19.5164 -8.13651 25.233 3.48735 
54.4261 85.7633 8.73757 -0.961524 -2.04266 1.42777 -0.280821 -1.49985 -0.109977 -0.563183 1.00353 -0.191289 -0.561246 2.64855 -0.181952 3.10755 18.1017 -2.30784 -2.97976 13.1438 -1.12335 29.7703 -18.5322 -15.3318 70.5455 36.5288 57.6469 8.06511e-007 -3.17957e-008 -2.85525e-006 -10.4846 35.0169 5.00408 -2.07185e-006 -7.13512e-006 -3.00313 8.02895 -4.95145 0.697691 -23.4129 -14.1549 11.0418 -72.8725 30.6803 -48.5183 -4.09316e-006 -1.36936e-006 7.63908e-006 16.6872 29.3656 -7.04609 5.78338e-006 -3.44004e-006 3.00789 -8.02899 -4.95144 -0.69767 177.608 -0.351386 -0.331656 180 7.01556e-015 178.962 176.973 5.1278 179.765 2.30606e-006 3.15075e-006 0.04243 -18.4813 67.8269 19.392 8.13649 25.2326 -3.48773 -175.112 -0.969167 0.734571 4.54188e-006 -4.6773e-006 -1.04929 -0.987943 -5.58695 0.435945 4.1259e-006 1.22674e-006 -0.0113756 17.8244 67.9845 -19.5163 -8.13651 25.233 3.48735 
54.3838 85.7626 8.72746 -0.959556 -2.02623 1.42449 -0.280391 -1.50422 -0.107532 -0.562284 0.994775 -0.186356 -0.560405 2.6398 -0.17703 3.13227 18.0831 -2.31723 -3.00902 13.118 -1.12412 29.8925 -18.5322 -15.3134 70.6884 36.4723 57.3534 8.06511e-007 -3.17957e-008 -2.85525e-006 -10.5027 34.3497 4.8947 -2.07185e-006 -7.13512e-006 -3.00313 8.02895 -4.95145 0.697691 -23.4988 -14.1116 10.9822 -73.0364 30.5224 -48.1128 -4.09316e-006 -1.36936e-006 7.63908e-006 16.5113 28.7325 -6.80737 5.78338e-006 -3.44004e-006 3.00789 -8.02899 -4.95144 -0.69767 177.601 -0.334504 -0.328274 180 7.01556e-015 178.962 176.97 5.12738 179.765 2.30606e-006 3.15075e-006 0.0424281 -18.482 67.8279 19.3925 8.13649 25.2326 -3.48773 -175.119 -0.95458 0.742009 4.54188e-006 -4.6773e-006 -1.04954 -0.98487 -5.58512 0.43549 4.1259e-006 1.22674e-006 -0.0115274 17.8277 67.9844 -19.5163 -8.13651 25.233 3.48735 
